<?xml version="1.0" encoding="UTF-8" standalone="no"?>
<svg
   xmlns:dc="http://purl.org/dc/elements/1.1/"
   xmlns:cc="http://creativecommons.org/ns#"
   xmlns:rdf="http://www.w3.org/1999/02/22-rdf-syntax-ns#"
   xmlns:svg="http://www.w3.org/2000/svg"
   xmlns="http://www.w3.org/2000/svg"
   xmlns:sodipodi="http://sodipodi.sourceforge.net/DTD/sodipodi-0.dtd"
   xmlns:inkscape="http://www.inkscape.org/namespaces/inkscape"
   height="512px"
   id="Layer_1"
   style="enable-background:new 0 0 512 512;"
   version="1.1"
   viewBox="0 0 512 512"
   width="512px"
   xml:space="preserve"
   sodipodi:docname="pause.svg"
   inkscape:version="1.0.2 (e86c8708, 2021-01-15)"><metadata
     id="metadata21"><rdf:RDF><cc:Work
         rdf:about=""><dc:format>image/svg+xml</dc:format><dc:type
           rdf:resource="http://purl.org/dc/dcmitype/StillImage" /></cc:Work></rdf:RDF></metadata><defs
     id="defs19" /><sodipodi:namedview
     pagecolor="#ffffff"
     bordercolor="#666666"
     borderopacity="1"
     objecttolerance="10"
     gridtolerance="10"
     guidetolerance="10"
     inkscape:pageopacity="0"
     inkscape:pageshadow="2"
     inkscape:window-width="705"
     inkscape:window-height="480"
     id="namedview17"
     showgrid="false"
     inkscape:zoom="0.31188522"
     inkscape:cx="203.88267"
     inkscape:cy="113.23045"
     inkscape:window-x="0"
     inkscape:window-y="0"
     inkscape:window-maximized="0"
     inkscape:current-layer="Layer_1"
     inkscape:document-rotation="0" /><g
     id="g14"
     style="fill:#ffffff"
     transform="matrix(0.72445793,0,0,0.72445793,70.53877,70.53877)"><path
       d="M 224,435.8 V 76.1 C 224,69.4 218.6,64 211.8,64 H 140.2 C 133.4,64 128,69.4 128,76.1 v 359.7 c 0,6.7 5.4,12.2 12.2,12.2 h 71.6 c 6.8,0 12.2,-5.4 12.2,-12.2 z"
       id="path10"
       style="fill:#ffffff" /><path
       d="M 371.8,64 H 300.2 C 293.5,64 288,69.4 288,76.1 v 359.7 c 0,6.7 5.4,12.2 12.2,12.2 h 71.6 c 6.7,0 12.2,-5.4 12.2,-12.2 V 76.1 C 384,69.4 378.6,64 371.8,64 Z"
       id="path12"
       style="fill:#ffffff" /></g></svg>
