<?xml version="1.0" encoding="UTF-8" standalone="no"?>
<svg
   xmlns:dc="http://purl.org/dc/elements/1.1/"
   xmlns:cc="http://creativecommons.org/ns#"
   xmlns:rdf="http://www.w3.org/1999/02/22-rdf-syntax-ns#"
   xmlns:svg="http://www.w3.org/2000/svg"
   xmlns="http://www.w3.org/2000/svg"
   xmlns:sodipodi="http://sodipodi.sourceforge.net/DTD/sodipodi-0.dtd"
   xmlns:inkscape="http://www.inkscape.org/namespaces/inkscape"
   viewBox="0 0 512 512"
   width="512"
   height="512"
   version="1.1"
   id="svg2948"
   sodipodi:docname="rabbit.svg"
   inkscape:version="1.0.2 (e86c8708, 2021-01-15)">
  <metadata
     id="metadata2954">
    <rdf:RDF>
      <cc:Work
         rdf:about="">
        <dc:format>image/svg+xml</dc:format>
        <dc:type
           rdf:resource="http://purl.org/dc/dcmitype/StillImage" />
        <dc:title></dc:title>
      </cc:Work>
    </rdf:RDF>
  </metadata>
  <defs
     id="defs2952" />
  <sodipodi:namedview
     pagecolor="#000000"
     bordercolor="#666666"
     borderopacity="1"
     objecttolerance="10"
     gridtolerance="10"
     guidetolerance="10"
     inkscape:pageopacity="0"
     inkscape:pageshadow="2"
     inkscape:window-width="828"
     inkscape:window-height="807"
     id="namedview2950"
     showgrid="false"
     inkscape:zoom="0.56013022"
     inkscape:cx="189.04592"
     inkscape:cy="100.2013"
     inkscape:window-x="155"
     inkscape:window-y="60"
     inkscape:window-maximized="0"
     inkscape:current-layer="svg2948"
     inkscape:pagecheckerboard="false" />
  <g
     id="Outline"
     style="fill:#ffffff"
     transform="matrix(1.12927,0,0,1,-30.666021,0)">
    <path
       d="m 424,312 v -48.426 a 54.925,54.925 0 0 0 48,-55.257 55.665,55.665 0 0 0 -25.092,-45.335 L 410.35,138.619 c -0.526,-0.35 -1.056,-0.688 -1.589,-1.02 l 3.02,-12.078 a 141.377,141.377 0 0 0 -7.211,-89.969 32.268,32.268 0 0 0 -59.311,0 q -1.535,3.573 -2.866,7.25 A 140.3,140.3 0 0 0 326.914,25.28 32.849,32.849 0 0 0 296.154,17.028 32.31,32.31 0 0 0 272,48.31 a 140.612,140.612 0 0 0 28.82,85.284 l 19.749,25.879 A 62.829,62.829 0 0 0 312,191.27 v 27.786 L 253.38,248.365 188.241,261.4 A 124.722,124.722 0 0 0 91.753,353.25 56.049,56.049 0 0 0 80,352 H 48 a 8,8 0 0 0 -8,8 v 32 a 56.063,56.063 0 0 0 56,56 h 8.722 c 1.554,2.9 3.2,5.788 4.954,8.62 l 19.309,35.226 A 8,8 0 0 0 136,496 h 144 a 8,8 0 0 0 8,-8 v -16 a 32.051,32.051 0 0 0 -22.053,-30.409 l 4.021,-10.721 15.368,-3.408 2.819,14.107 a 7.987,7.987 0 0 0 1.191,2.871 l 32,48 A 8,8 0 0 0 328,496 h 96 a 8,8 0 0 0 8,-8 v -8 a 32.036,32.036 0 0 0 -32,-32 h -3.056 L 392,438.111 v -50.4 A 105.8,105.8 0 0 0 424,312 Z M 359.966,41.854 a 16.27,16.27 0 0 1 29.9,0.008 125.388,125.388 0 0 1 6.391,79.778 l -2.305,9.218 A 63.436,63.436 0 0 0 375.27,128 q -1.368,0 -2.745,0.062 l -3.83,-23.431 a 140.625,140.625 0 0 0 -15.029,-44.177 125.211,125.211 0 0 1 6.3,-18.6 z M 56,392 v -24 h 24 a 40.052,40.052 0 0 1 8.884,1 130.771,130.771 0 0 0 8.461,63 H 96 A 40.045,40.045 0 0 1 56,392 Z M 303.534,436.877 300.96,424 l 22.675,-5.028 4.52,22.6 a 8,8 0 0 0 1.189,2.869 L 353.052,480 h -20.77 z M 400,464 a 16.019,16.019 0 0 1 16,16 h -43.719 l -28.747,-43.121 -15.689,-78.448 -15.69,3.138 8.342,41.707 -58.23,12.914 a 8,8 0 0 0 -5.758,5 L 249.456,440 h -17.383 a 78.391,78.391 0 0 0 -50.231,-83.353 l -11.033,-4.137 -5.618,14.98 11.033,4.138 a 62.389,62.389 0 0 1 39.857,67.24 A 7.939,7.939 0 0 0 216,440 v 8 a 8,8 0 0 0 8,8 h 32 a 16.019,16.019 0 0 1 16,16 v 8 H 140.738 l -17.133,-31.256 c -0.068,-0.124 -0.14,-0.247 -0.215,-0.368 -2.419,-3.9 -4.649,-7.914 -6.627,-11.917 -11.439,-23.172 -15.285,-47.957 -11.124,-71.674 a 108.722,108.722 0 0 1 85.74,-87.7 l 66.19,-13.24 a 7.975,7.975 0 0 0 2.009,-0.69 l 64,-32 A 8,8 0 0 0 328,224 v -32.73 a 46.979,46.979 0 0 1 8.842,-27.52 8,8 0 0 0 -0.142,-9.514 L 313.538,123.885 A 124.62,124.62 0 0 1 288,48.3 a 16.311,16.311 0 0 1 12.206,-15.786 16.747,16.747 0 0 1 15.647,4.335 124.929,124.929 0 0 1 22.282,28.585 c 0.025,0.048 0.052,0.094 0.078,0.141 a 124.784,124.784 0 0 1 14.692,41.64 l 5.05,30.9 a 8,8 0 0 0 9.261,6.593 46.955,46.955 0 0 1 28.555,3.989 c 0.092,0.049 0.186,0.1 0.281,0.142 a 44.872,44.872 0 0 1 5.431,3.1 l 36.546,24.356 A 39.666,39.666 0 0 1 456,208.539 38.9,38.9 0 0 1 417.1,248 H 416 a 8,8 0 0 0 -8,8 v 56 a 89.757,89.757 0 0 1 -16,51.066 V 352 h -16 v 88 a 7.994,7.994 0 0 0 0.845,3.578 l 8,16 A 8,8 0 0 0 392,464 Z"
       id="path2943"
       style="fill:#ffffff" />
    <circle
       cx="392"
       cy="192"
       r="16"
       id="circle2945"
       style="fill:#ffffff" />
  </g>
</svg>
