<?xml version="1.0" encoding="UTF-8" standalone="no"?>
<svg
   xmlns:dc="http://purl.org/dc/elements/1.1/"
   xmlns:cc="http://creativecommons.org/ns#"
   xmlns:rdf="http://www.w3.org/1999/02/22-rdf-syntax-ns#"
   xmlns:svg="http://www.w3.org/2000/svg"
   xmlns="http://www.w3.org/2000/svg"
   xmlns:sodipodi="http://sodipodi.sourceforge.net/DTD/sodipodi-0.dtd"
   xmlns:inkscape="http://www.inkscape.org/namespaces/inkscape"
   version="1.1"
   id="Capa_1"
   x="0px"
   y="0px"
   viewBox="0 0 512.001 512.001"
   style="enable-background:new 0 0 512.001 512.001;"
   xml:space="preserve"
   sodipodi:docname="turtle.svg"
   inkscape:version="1.0.2 (e86c8708, 2021-01-15)"><metadata
   id="metadata2909"><rdf:RDF><cc:Work
       rdf:about=""><dc:format>image/svg+xml</dc:format><dc:type
         rdf:resource="http://purl.org/dc/dcmitype/StillImage" /><dc:title></dc:title></cc:Work></rdf:RDF></metadata><defs
   id="defs2907">
		
	
	
</defs><sodipodi:namedview
   pagecolor="#0e0000"
   bordercolor="#666666"
   borderopacity="1"
   objecttolerance="10"
   gridtolerance="10"
   guidetolerance="10"
   inkscape:pageopacity="0"
   inkscape:pageshadow="2"
   inkscape:window-width="1241"
   inkscape:window-height="784"
   id="namedview2905"
   showgrid="false"
   inkscape:zoom="0.75521226"
   inkscape:cx="350.82312"
   inkscape:cy="194.67404"
   inkscape:window-x="771"
   inkscape:window-y="112"
   inkscape:window-maximized="0"
   inkscape:current-layer="Capa_1"
   inkscape:pagecheckerboard="false" />
















<g
   id="g2976"
   transform="matrix(1,0,0,1.1508785,0,-74.680148)"><path
     d="m 6.79578,359.17775 c 14.011,-21.3 37.351,-52.459 68.978,-79.941 37.419,-32.517 77.482,-52.3 119.071,-58.799 61.951,-9.678 126.295,10.271 191.458,59.298 v -57.454 c 0,-16.126 6.986,-31.435 19.17,-42.001 12.182,-10.565 28.325,-15.317 44.289,-13.036 l 29.797,4.256 c 19.365,2.767 33.969,19.605 33.969,39.167 v 28.299 c 0,4.205 -1.731,8.285 -4.75,11.195 -1.046,1.008 -2.211,1.837 -3.453,2.502 l 0.058,5.644 c 0.112,10.932 -7.217,20.42 -17.824,23.072 l -14.289,3.572 c -0.237,0.06 -0.431,0.244 -0.45,0.428 -1.38,13.555 -6.189,36.49 -15.552,60.213 -12.247,31.04 -29.222,56.704 -50.453,76.372 l 1.792,17.922 h 1.229 c 12.975,0 24.473,7.784 29.292,19.832 l 9.985,24.964 c 0.924,2.311 0.642,4.929 -0.753,6.99 -1.396,2.061 -3.723,3.295 -6.211,3.295 h -52.679 c -14.987,0 -27.997,-10.665 -30.937,-25.361 l -3.079,-15.395 c -21.921,8.632 -59.733,18.729 -116.729,18.729 -16.062,0 -33.677,-0.818 -52.858,-2.681 l 6.359,14.132 c 1.044,2.32 0.84,5.013 -0.542,7.149 -1.382,2.136 -3.753,3.428 -6.298,3.428 h -64.127 c -12.977,0 -23.533,-10.556 -23.533,-23.532 v -17.248 c -9.629,-2.953 -16.598,-5.837 -20.708,-8.578 -10.283,-6.855 -20.034,-17.839 -29.014,-32.67 -7.225,-1.586 -14.54,-3.272 -21.953,-5.071 -10.31,-2.502 -18.439,-9.558 -22.302,-19.36 -3.81,-9.674 -2.672,-20.637 3.047,-29.332 z m 17.136,1.397 c -15.95452,-240.38317 -7.97726,-120.19158 0,0 z m 177.629,23.436 c -134.373853,-256.00717 -67.18693,-128.00358 0,0 z m 256.336,-100.152 c 0.658,-6.46 5.374,-11.87 11.733,-13.46 l 14.289,-3.572 c 3.846,-0.961 6.503,-4.401 6.462,-8.365 l -0.044,-4.325 c -15.401,-0.898 -33.405,-3.091 -43.777,-8.277 -3.704,-1.852 -5.206,-6.357 -3.354,-10.062 1.852,-3.705 6.354,-5.207 10.063,-3.354 7.401,3.701 23.721,6.268 44.771,7.042 0.052,0.001 0.189,0.008 0.327,-0.124 0.16,-0.154 0.16,-0.335 0.16,-0.394 v -28.299 c 0,-12.145 -9.066,-22.599 -21.09,-24.317 l -29.797,-4.256 c -11.657,-1.671 -23.443,1.804 -32.339,9.519 -8.896,7.714 -13.997,18.893 -13.997,30.668 v 72.801 c 0,0.061 -0.008,0.12 -0.009,0.18 -10e-4,0.044 0.004,0.088 0.002,0.132 -0.066,1.586 -1.521,29.154 -21.913,59.12 l 2.015,0.672 c 11.775,3.925 20.182,14.44 21.416,26.79 l 2.076,20.757 c 45.346,-48.612 52.696,-115.838 53.006,-118.876 z m -95.226,129.944 10.572,52.863 c 1.541,7.707 8.365,13.302 16.228,13.302 h 41.6 l -5.871,-14.678 c -2.527,-6.319 -8.558,-10.402 -15.364,-10.402 h -8.016 c -3.854,0 -7.079,-2.92 -7.463,-6.754 l -6.467,-64.663 c -0.647,-6.478 -5.056,-11.992 -11.232,-14.052 l -6.939,-2.313 c -6.399,7.426 -14.088,14.799 -23.338,21.767 -9.869,7.433 -20.884,13.867 -32.948,19.338 11.365,7.343 26.052,9.202 34.746,9.611 l -0.216,-1.078 c -0.813,-4.062 1.822,-8.013 5.884,-8.825 4.068,-0.815 8.012,1.822 8.824,5.884 z m -10.208,25.447 -1.263,-6.316 c -11.124,-0.124 -36.903,-2.265 -53.754,-18.263 -19.115,6.813 -40.513,11.474 -64.08,13.914 -12.995,1.346 -26.673,2.017 -41.012,2.017 -12.667,0 -25.865,-0.538 -39.547,-1.585 v 10.885 c 10.432,0.333 19.975,5.834 25.54,14.497 92.475,10.362 147.499,-4.148 174.116,-15.149 z m -239.737,32.186 c 0.001,4.704 3.828,8.531 8.533,8.531 h 52.527 l -6.894,-15.322 c -2.668,-5.928 -8.592,-9.758 -15.092,-9.758 h -6.494 c -4.143,0 -7.5,-3.357 -7.5,-7.5 v -19.711 c -8.195,-0.831 -16.553,-1.834 -25.08,-3.02 z m -27.386,-38.306 c 1.145,0.763 4.451,2.634 12.386,5.306 v -16.032 c -9.343,-1.492 -18.868,-3.181 -28.582,-5.08 5.3,6.83 10.772,12.19 16.196,15.806 z m -67.634,-50.12 c 2.05,5.199 6.381,8.947 11.883,10.283 78.987,19.171 146.905,26.037 201.863,20.41 43.605,-4.466 79.122,-16.768 105.566,-36.562 38.999,-29.193 47.238,-67.027 48.895,-78.764 -5.258,-4.165 -67.46434,-43.27047 -95.2074,-51.2586 -120.32868,-42.31676 -194.163215,31.02814 -274.0056,127.0716 -0.453,2.917 -0.129,5.939 1.006,8.82 z"
     id="path2862"
     style="fill:#ffffff"
     sodipodi:nodetypes="ccccscccsscccccccccscccssccsccsssscccscccccccccccsscccsscccsscccccccccsccssccccccccccccccscccccsccssscccccccccccccccc" /><g
     id="g2872"
     transform="matrix(-1,0,0,1,513.52778,74.826753)"
     style="fill:#ffffff">
	<g
   id="g2870"
   style="fill:#ffffff">
		<path
   d="m 55.597,124.58 c -4.143,0 -7.5,3.358 -7.5,7.5 v 8.016 c 0,4.142 3.357,7.5 7.5,7.5 4.143,0 7.5,-3.358 7.5,-7.5 v -8.016 c 0,-4.142 -3.358,-7.5 -7.5,-7.5 z"
   id="path2868"
   style="fill:#ffffff" />
	</g>
</g><g
     id="g2874"
     transform="matrix(-1,0,0,1,513.52778,74.826753)">
</g><g
     id="g2876"
     transform="matrix(-1,0,0,1,513.52778,74.826753)">
</g><g
     id="g2878"
     transform="matrix(-1,0,0,1,513.52778,74.826753)">
</g><g
     id="g2880"
     transform="matrix(-1,0,0,1,513.52778,74.826753)">
</g><g
     id="g2882"
     transform="matrix(-1,0,0,1,513.52778,74.826753)">
</g><g
     id="g2884"
     transform="matrix(-1,0,0,1,513.52778,74.826753)">
</g><g
     id="g2886"
     transform="matrix(-1,0,0,1,513.52778,74.826753)">
</g><g
     id="g2888"
     transform="matrix(-1,0,0,1,513.52778,74.826753)">
</g><g
     id="g2890"
     transform="matrix(-1,0,0,1,513.52778,74.826753)">
</g><g
     id="g2892"
     transform="matrix(-1,0,0,1,513.52778,74.826753)">
</g><g
     id="g2894"
     transform="matrix(-1,0,0,1,513.52778,74.826753)">
</g><g
     id="g2896"
     transform="matrix(-1,0,0,1,513.52778,74.826753)">
</g><g
     id="g2898"
     transform="matrix(-1,0,0,1,513.52778,74.826753)">
</g><g
     id="g2900"
     transform="matrix(-1,0,0,1,513.52778,74.826753)">
</g><g
     id="g2902"
     transform="matrix(-1,0,0,1,513.52778,74.826753)">
</g></g>
</svg>
